<svg id="visual" viewBox="0 0 900 600" width="900" height="600" xmlns="http://www.w3.org/2000/svg" xmlns:xlink="http://www.w3.org/1999/xlink" version="1.1"><path d="M0 217L30 218C60 219 120 221 180 220C240 219 300 215 360 202C420 189 480 167 540 176C600 185 660 225 720 233C780 241 840 217 870 205L900 193L900 0L870 0C840 0 780 0 720 0C660 0 600 0 540 0C480 0 420 0 360 0C300 0 240 0 180 0C120 0 60 0 30 0L0 0Z" fill="#6198ff"></path><path d="M0 295L30 292C60 289 120 283 180 275C240 267 300 257 360 243C420 229 480 211 540 222C600 233 660 273 720 279C780 285 840 257 870 243L900 229L900 191L870 203C840 215 780 239 720 231C660 223 600 183 540 174C480 165 420 187 360 200C300 213 240 217 180 218C120 219 60 217 30 216L0 215Z" fill="#3c80ff"></path><path d="M0 373L30 366C60 359 120 345 180 338C240 331 300 331 360 324C420 317 480 303 540 314C600 325 660 361 720 366C780 371 840 345 870 332L900 319L900 227L870 241C840 255 780 283 720 277C660 271 600 231 540 220C480 209 420 227 360 241C300 255 240 265 180 273C120 281 60 287 30 290L0 293Z" fill="#0066ff"></path><path d="M0 463L30 453C60 443 120 423 180 426C240 429 300 455 360 452C420 449 480 417 540 412C600 407 660 429 720 443C780 457 840 463 870 466L900 469L900 317L870 330C840 343 780 369 720 364C660 359 600 323 540 312C480 301 420 315 360 322C300 329 240 329 180 336C120 343 60 357 30 364L0 371Z" fill="#0059dd"></path><path d="M0 601L30 601C60 601 120 601 180 601C240 601 300 601 360 601C420 601 480 601 540 601C600 601 660 601 720 601C780 601 840 601 870 601L900 601L900 467L870 464C840 461 780 455 720 441C660 427 600 405 540 410C480 415 420 447 360 450C300 453 240 427 180 424C120 421 60 441 30 451L0 461Z" fill="#004cbb"></path></svg>